<svg t="1660655158821" class="icon" viewBox="0 0 1024 1024" version="1.1" xmlns="http://www.w3.org/2000/svg" p-id="9764" width="300" height="300"><path d="M594.6 677.2l82.6-82.6-454.2-454-96.2-13.8 13.8 96.2z" fill="#FFFFFF" p-id="9765"></path><path d="M126.8 126.8l18.4 18.4 490.6 490.6-41.2 41.4-454-454.2z" fill="#E6E7E8" p-id="9766"></path><path d="M126.8 126.8l18.4 18.4 64.2 9 454 454.2 13.8-13.8-454.2-454z" fill="#E6E7E8" p-id="9767"></path><path d="M684 601.4L601.4 684c-3.8 3.8-10 3.8-13.8 0l-454-454c-1.4-1.4-2.4-3.4-2.8-5.4l-13.8-96.2c-0.4-3 0.6-6 2.8-8.2 2.2-2.2 5.2-3.2 8.2-2.8l96.4 13.8c2 0.2 4 1.2 5.6 2.8l454 454c3.8 3.4 3.8 9.6 0 13.4z m-89.4 62l68.8-68.8L218.4 149.6 138 138.2l11.6 80.2 445 445z" fill="#402943" p-id="9768"></path><path d="M240.2 240.2c-1.8 1.8-5 1.8-6.8 0l-27.6-27.6c-1.8-1.8-1.8-5 0-6.8s5-1.8 6.8 0l27.6 27.6c2 2 2 5 0 6.8zM639.2 639.2c-1.8 1.8-5 1.8-6.8 0L261 267.8c-1.8-1.8-1.8-5 0-6.8s5-1.8 6.8 0l371.4 371.4c2 2 2 5 0 6.8z" fill="#402943" p-id="9769"></path><path d="M842.34 787.176l-55.01 55.012-123.884-123.884 55.012-55.012z" fill="#59C3F0" p-id="9770"></path><path d="M814.724 814.736l-27.578 27.576-123.884-123.884 27.578-27.576z" fill="#21A0D6" p-id="9771"></path><path d="M849.2 794L794 849.2c-3.8 3.8-10 3.8-13.8 0l-123.8-123.8c-3.8-3.8-3.8-10 0-13.8l55-55c3.8-3.8 10-3.8 13.8 0l123.8 123.8c4 3.8 4 9.8 0.2 13.6z m-62 34.4l41.2-41.2-110-110-41.2 41.2 110 110z" fill="#402943" p-id="9772"></path><path d="M773.4 718.4c-1 1-2.4 1.8-3.8 2.4l-82.6 27.6c-5 1.6-10.6-1-12.4-6.2-1.6-5 1-10.6 6.2-12.4l82.6-27.6c5-1.6 10.6 1 12.4 6.2 1.2 3.6 0.2 7.4-2.4 10z" fill="#402943" p-id="9773"></path><path d="M828.4 773.4c-1 1-2.4 1.8-3.8 2.4L742 803.4c-5 1.6-10.6-1-12.4-6.2-1.6-5 1-10.6 6.2-12.4l82.6-27.6c5-1.6 10.6 1 12.4 6.2 1.2 3.8 0.2 7.6-2.4 10z" fill="#402943" p-id="9774"></path><path d="M856 773.4l41.2 13.8-27.4 82.6-82.6 27.4-13.8-41.2z" fill="#FCD64B" p-id="9775"></path><path d="M856 773.4l-13.8 13.8 41.4 13.8-20.8 61.8 7 7 27.4-82.6z" fill="#F5AB33" p-id="9776"></path><path d="M773.4 856l13.8-13.8 13.8 41.4 61.8-20.8 7 7-82.6 27.4z" fill="#FFECA6" p-id="9777"></path><path d="M876.6 876.6c-1 1-2.4 1.8-3.8 2.4l-82.6 27.6c-2.4 0.8-5.2 0.6-7.4-0.6-2.4-1.2-4-3.2-4.8-5.6l-13.8-41.2c-1.2-3.4-0.2-7.4 2.4-10l82.6-82.6c2.6-2.6 6.4-3.6 10-2.4l41.2 13.8c5 1.6 7.8 7.2 6.2 12.4l-27.6 82.6c-0.4 1.2-1.4 2.6-2.4 3.6z m-83.2 8.4L862 862l23-68.8-26.4-8.8-74 74 8.8 26.6z" fill="#402943" p-id="9778"></path><path d="M849.2 849.2c-3.8 3.8-10 3.8-13.8 0l-27.6-27.6c-3.8-3.8-3.8-10 0-13.8 3.8-3.8 10-3.8 13.8 0l27.6 27.6c3.8 3.8 3.8 10 0 13.8z" fill="#402943" p-id="9779"></path><path d="M718.4 553.2l-165.2 165.2v55h55.2l165-165v-55.2z" fill="#FCD64B" p-id="9780"></path><path d="M718.4 553.2l-27.6 27.6H746v55l27.4-27.4v-55.2z" fill="#F5AB33" p-id="9781"></path><path d="M608.4 773.4l27.4-27.4h-55v-55.2l-27.6 27.6v55z" fill="#FFECA6" p-id="9782"></path><path d="M780.4 615.2l-165.2 165.2c-1.8 1.8-4.2 2.8-6.8 2.8h-55c-5.4 0-9.8-4.4-9.8-9.8v-55c0-2.6 1-5 2.8-6.8l165.2-165.2c1.8-1.8 4.2-2.8 6.8-2.8h55c2.6 0 5 1 6.8 2.8 1.8 1.8 2.8 4.2 2.8 6.8v55c0.2 2.8-0.8 5.2-2.6 7z m-176 148.6l159.4-159.4v-41.2h-41.2l-159.4 159.4v41.2h41.2z" fill="#402943" p-id="9783"></path><path d="M635.824915 690.945503a39 39 0 1 0 55.153366-55.155292 39 39 0 1 0-55.153366 55.155292Z" fill="#F05458" p-id="9784"></path><path d="M675.8 675.8c-12.6 12.6-31.6 14.8-46.4 6.4 1.8 3 3.8 6 6.4 8.6 15.2 15.2 39.8 15.2 55 0 15.2-15.2 15.2-39.8 0-55-2.6-2.6-5.4-4.8-8.6-6.4 8.4 14.8 6.2 34-6.4 46.4z" fill="#D9383C" p-id="9785"></path><path d="M697.8 697.8c-19 19-49.8 19-68.8 0s-19-49.8 0-68.8 49.8-19 68.8 0 19 49.8 0 68.8z m-55-55c-11.4 11.4-11.4 30 0 41.2 11.4 11.4 30 11.4 41.2 0 11.4-11.4 11.4-30 0-41.2-11.4-11.4-29.8-11.4-41.2 0z" fill="#402943" p-id="9786"></path><path d="M735.6 598l-41.2 41.2c-1.8 1.8-5 1.8-6.8 0s-1.8-5 0-6.8l41.2-41.2c1.8-1.8 5-1.8 6.8 0 2 1.8 2 5 0 6.8z" fill="#402943" p-id="9787"></path><path d="M639.2 694.4L598 735.6c-1.8 1.8-5 1.8-6.8 0-1.8-1.8-1.8-5 0-6.8l41.2-41.2c1.8-1.8 5-1.8 6.8 0 2 1.8 2 4.8 0 6.8z" fill="#402943" p-id="9788"></path><path d="M347 594.6l82.4 82.6 454.2-454.2 13.6-96.2-96.2 13.8z" fill="#E6E7E8" p-id="9789"></path><path d="M897.4 126.8l-18.6 18.4-490.6 490.6-41.2-41.2 454-454z" fill="#BCBEC0" p-id="9790"></path><path d="M897.2 126.8l-18.4 18.4-9 64.2-454 454 13.6 13.8 454.2-454.2z" fill="#FFFFFF" p-id="9791"></path><path d="M422.6 684L340 601.4c-3.8-3.8-3.8-10 0-13.8l454-454c1.4-1.4 3.4-2.4 5.4-2.8l96.2-13.8c3-0.4 6 0.6 8.2 2.8 2.2 2.2 3.2 5.2 2.8 8.2l-13.8 96.4c-0.2 2-1.2 4-2.8 5.6L436 684c-3.4 3.8-9.6 3.8-13.4 0z m-62-89.4l68.8 68.8 444.8-444.8 11.4-80.4-80.2 11.6-444.8 444.8z" fill="#402943" p-id="9792"></path><path d="M783.8 240.2c-1.8-1.8-1.8-5 0-6.8l27.6-27.6c1.8-1.8 5-1.8 6.8 0s1.8 5 0 6.8l-27.6 27.6c-1.8 2-5 2-6.8 0zM384.8 639.2c-1.8-1.8-1.8-5 0-6.8l371.4-371.4c1.8-1.8 5-1.8 6.8 0s1.8 5 0 6.8L391.6 639.2c-1.8 2-5 2-6.8 0z" fill="#402943" p-id="9793"></path><path d="M236.752 842.218l-55.014-55.012 123.884-123.884 55.012 55.012z" fill="#F05458" p-id="9794"></path><path d="M209.272 814.798L181.694 787.22l123.884-123.884 27.578 27.578z" fill="#D9383C" p-id="9795"></path><path d="M230 849.2L175 794c-3.8-3.8-3.8-10 0-13.8l123.8-123.8c3.8-3.8 10-3.8 13.8 0l55 55c3.8 3.8 3.8 10 0 13.8l-123.8 123.8c-3.8 4-10 4-13.8 0.2z m-34.4-62l41.2 41.2 110-110-41.2-41.2-110 110z" fill="#402943" p-id="9796"></path><path d="M305.6 773.4c-1-1-1.8-2.4-2.4-3.8l-27.6-82.6c-1.6-5 1-10.6 6.2-12.4 5-1.6 10.6 1 12.4 6.2l27.6 82.6c1.6 5-1 10.6-6.2 12.4-3.6 1.2-7.4 0.2-10-2.4z" fill="#402943" p-id="9797"></path><path d="M250.6 828.4c-1-1-1.8-2.4-2.4-3.8L220.6 742c-1.6-5 1-10.6 6.2-12.4 5-1.6 10.6 1 12.4 6.2l27.6 82.6c1.6 5-1 10.6-6.2 12.4-3.6 1.2-7.4 0.2-10-2.4z" fill="#402943" p-id="9798"></path><path d="M250.6 856l-13.8 41.2-82.6-27.4-27.4-82.6 41.2-13.8z" fill="#FCD64B" p-id="9799"></path><path d="M250.6 856l-13.8-13.8-13.8 41.4-61.8-20.8-7 7 82.6 27.4z" fill="#F5AB33" p-id="9800"></path><path d="M168 773.4l13.8 13.8-41.2 13.8 20.6 61.8-7 7-27.4-82.6z" fill="#FFECA6" p-id="9801"></path><path d="M147.4 876.6c-1-1-1.8-2.4-2.4-3.8l-27.6-82.6c-0.8-2.4-0.6-5.2 0.6-7.4 1.2-2.4 3.2-4 5.6-4.8l41.2-13.8c3.4-1.2 7.4-0.2 10 2.4l82.6 82.6c2.6 2.6 3.6 6.4 2.4 10l-13.8 41.2c-1.6 5-7.2 7.8-12.4 6.2l-82.6-27.6c-1.2-0.4-2.6-1.4-3.6-2.4z m-8.4-83.2L162 862l68.8 23 8.8-26.4-74-74-26.6 8.8z" fill="#402943" p-id="9802"></path><path d="M175 849.2c-3.8-3.8-3.8-10 0-13.8l27.6-27.6c3.8-3.8 10-3.8 13.8 0 3.8 3.8 3.8 10 0 13.8l-27.6 27.6c-4 3.8-10 3.8-13.8 0z" fill="#402943" p-id="9803"></path><path d="M470.8 718.4l-165.2-165.2h-55v55.2l165.2 165h55z" fill="#FCD64B" p-id="9804"></path><path d="M470.8 718.4l-27.6-27.6V746h-55l27.6 27.4h55z" fill="#F5AB33" p-id="9805"></path><path d="M250.6 608.4l27.6 27.4v-55h55l-27.6-27.6h-55z" fill="#FFECA6" p-id="9806"></path><path d="M408.8 780.4l-165.2-165.2c-1.8-1.8-2.8-4.2-2.8-6.8v-55c0-5.4 4.4-9.8 9.8-9.8h55c2.6 0 5 1 6.8 2.8l165.2 165.2c1.8 1.8 2.8 4.2 2.8 6.8v55c0 2.6-1 5-2.8 6.8-1.8 1.8-4.2 2.8-6.8 2.8h-55c-2.6 0.2-5.2-0.8-7-2.6z m-148.4-176l159.4 159.4h41.2v-41.2l-159.4-159.4h-41.2v41.2z" fill="#402943" p-id="9807"></path><path d="M333.059034 691.015872a39 39 0 1 0 55.153366-55.155292 39 39 0 1 0-55.153366 55.155292Z" fill="#59C3F0" p-id="9808"></path><path d="M348.2 675.8c-12.6-12.6-14.8-31.6-6.4-46.4-3 1.8-6 3.8-8.6 6.4-15.2 15.2-15.2 39.8 0 55 15.2 15.2 39.8 15.2 55 0 2.6-2.6 4.8-5.4 6.4-8.6-14.8 8.4-33.8 6.2-46.4-6.4z" fill="#21A0D6" p-id="9809"></path><path d="M326.2 697.8c-19-19-19-49.8 0-68.8s49.8-19 68.8 0 19 49.8 0 68.8c-18.8 19-49.8 19-68.8 0z m55.2-55c-11.4-11.4-29.8-11.4-41.2 0-11.4 11.4-11.4 30 0 41.2 11.4 11.4 29.8 11.4 41.2 0 11.2-11.4 11.2-29.8 0-41.2z" fill="#402943" p-id="9810"></path><path d="M426 735.6l-41.2-41.2c-1.8-1.8-1.8-5 0-6.8 1.8-1.8 5-1.8 6.8 0l41.2 41.2c1.8 1.8 1.8 5 0 6.8-1.8 2-4.8 2-6.8 0z" fill="#402943" p-id="9811"></path><path d="M329.8 639.2L288.4 598c-1.8-1.8-1.8-5 0-6.8 1.8-1.8 5-1.8 6.8 0l41.2 41.2c1.8 1.8 1.8 5 0 6.8-1.8 2-4.8 2-6.6 0z" fill="#402943" p-id="9812"></path></svg>