<svg t="1660654117228" class="icon" viewBox="0 0 1024 1024" version="1.1" xmlns="http://www.w3.org/2000/svg" p-id="4483" width="300" height="300"><path d="M352 864v48h-16a32 32 0 0 0-32 32v32h160v-112zM672 864v48h16a32 32 0 0 1 32 32v32h-160v-112z" fill="#00A8E7" p-id="4484"></path><path d="M336 624v224a16 16 0 0 0 16 16h112a16 16 0 0 0 16-16v-16a32 32 0 0 1 32-32 32 32 0 0 1 32 32v16a16 16 0 0 0 16 16h112a16 16 0 0 0 16-16V624zM688 400v-176a176 176 0 0 0-176-176 176 176 0 0 0-176 176v176l-96 96-48-48-64 64 89.38 89.38a32 32 0 0 0 45.24 0L336 528v96h352v-96l73.38 73.38a32 32 0 0 0 45.24 0L896 512l-64-64-48 48z" fill="#ECEFF0" p-id="4485"></path><path d="M864 480l-80 80-96-96v64l73.38 73.38a32 32 0 0 0 45.24 0L896 512zM240 560l-80-80-32 32 89.38 89.38a32 32 0 0 0 45.24 0L336 528v-64zM688 400v-176a176 176 0 0 0-176-176 175.84 175.84 0 0 0-147.52 80H528a80 80 0 0 1 80 80v416h80zM608 624v240h64a16 16 0 0 0 16-16V624zM400 864v-48a48 48 0 0 1 48-48h64v32a32 32 0 0 0-32 32v16a16 16 0 0 1-16 16z" fill="#D1E1E5" p-id="4486"></path><path d="M192 448l-64 64-66.74-66.74a45.24 45.24 0 0 1-13.26-32A45.26 45.26 0 0 1 93.26 368a45.24 45.24 0 0 1 32 13.26L144 400l8-8a34 34 0 0 1 48 0 34 34 0 0 1 0 48zM832 448l64 64 66.74-66.74a45.24 45.24 0 0 0 13.26-32A45.26 45.26 0 0 0 930.74 368a45.24 45.24 0 0 0-32 13.26L880 400l-8-8a34 34 0 0 0-48 0 34 34 0 0 0 0 48z" fill="#00A8E7" p-id="4487"></path><path d="M416 192m48 0l96 0q48 0 48 48l0 96q0 48-48 48l-96 0q-48 0-48-48l0-96q0-48 48-48Z" fill="#FAC8B2" p-id="4488"></path><path d="M464 240m-16 0a16 16 0 1 0 32 0 16 16 0 1 0-32 0Z" fill="#F97D7D" p-id="4489"></path><path d="M560 240m-16 0a16 16 0 1 0 32 0 16 16 0 1 0-32 0Z" fill="#F97D7D" p-id="4490"></path><path d="M576 352h-128a112 112 0 0 1 0-224h128a112 112 0 0 1 0 224z m-128-192a80 80 0 0 0 0 160h128a80 80 0 0 0 0-160z" fill="#00A8E7" p-id="4491"></path><path d="M512 160a16 16 0 0 1-16-16V48a16 16 0 0 1 32 0v96a16 16 0 0 1-16 16zM512 816a16 16 0 0 1-16-16V400a16 16 0 0 1 32 0v400a16 16 0 0 1-16 16z" fill="#00A8E7" p-id="4492"></path><path d="M384 320h64v96h-64zM576 320h64v96h-64z" fill="#FFDB43" p-id="4493"></path><path d="M480 304v32h-32v64h128v-64h-32v-32a32 32 0 0 0-32-32 32 32 0 0 0-32 32z" fill="#5EC09B" p-id="4494"></path><path d="M320 608m16 0l352 0q16 0 16 16l0 0q0 16-16 16l-352 0q-16 0-16-16l0 0q0-16 16-16Z" fill="#00A8E7" p-id="4495"></path><path d="M368 480m16 0l256 0q16 0 16 16l0 0q0 16-16 16l-256 0q-16 0-16-16l0 0q0-16 16-16Z" fill="#00A8E7" p-id="4496"></path><path d="M384 368h64v48h-64zM576 368h64v48h-64z" fill="#FCC200" p-id="4497"></path><path d="M448 368h128v32h-128zM544 336h-32v-64a32 32 0 0 1 32 32z" fill="#42A87E" p-id="4498"></path><path d="M480 240a16 16 0 0 1-16 16c-21.2-0.78-21.2-31.22 0-32a16 16 0 0 1 16 16z m80-16a16 16 0 0 0-16 16c0.78 21.2 31.22 21.2 32 0a16 16 0 0 0-16-16z m432 189.26a60.84 60.84 0 0 1-18 43.3l-66.74 66.76-112 112a16 16 0 0 1-22.64 0L704 566.62V848a32 32 0 0 1-16 27.66V896a48 48 0 0 1 48 48v32a16 16 0 0 1-16 16h-160a16 16 0 0 1-16-16v-100.34a32 32 0 0 1-16-27.66v-16c-0.8-21.2-31.2-21.2-32 0v16a32 32 0 0 1-16 27.66V976a16 16 0 0 1-16 16h-160a16 16 0 0 1-16-16v-32a48 48 0 0 1 48-48v-20.34a32 32 0 0 1-16-27.66V566.62l-68.68 68.7a16 16 0 0 1-22.64 0L50 456.56a60.84 60.84 0 0 1-18-43.3c-0.12-54.16 66.44-81.78 104.56-43.32l7.6 7.58c47.6-37.26 107.56 22.76 70.3 70.32L240 473.38l80-80V224a192 192 0 0 1 384 0v169.38l80 80 25.54-25.54c-37.28-47.6 22.76-107.56 70.3-70.32l7.6-7.58c38.12-38.44 104.68-10.84 104.56 43.32zM528 64.8V128h48a111.78 111.78 0 0 1 86 40.34 160.42 160.42 0 0 0-134-103.54zM560 384v-32h-16a16 16 0 0 1-16-16v-32a16 16 0 0 0-32 0v32a16 16 0 0 1-16 16h-16v32z m32-144a32 32 0 0 0-32-32h-96a32 32 0 0 0-32 32v64h16a16 16 0 0 1 16 16v-16a48 48 0 0 1 96 0v16a16 16 0 0 1 16-16h16z m-192 160h32v-64h-32z m192 0h32v-64h-32z m64-160a80 80 0 0 0-80-80h-128c-76.86 0.6-109.04 97.44-48 144v-64a64 64 0 0 1 64-64h96a64 64 0 0 1 64 64v64a79.78 79.78 0 0 0 32-64zM362 168.2A111.42 111.42 0 0 1 448 128h48V64.8a160.36 160.36 0 0 0-134 103.4zM72.56 434L128 489.38l52.68-52.7 8-8A17.74 17.74 0 0 0 194 416c0.22-15.74-19.62-24-30.62-12.68l-8 8a16 16 0 0 1-22.64 0L114 392.56c-18-18.36-50.12-5.1-50 20.7A29.08 29.08 0 0 0 72.56 434z m252.12 82.74c9.78-10 27.52-2.7 27.32 11.32v80h144V416h-32a16 16 0 0 1-16 16h-64a16 16 0 0 1-16-16v-96a13.7 13.7 0 0 1 0-1.58 112.34 112.34 0 0 1-16-20.74V400a16 16 0 0 1-4.68 11.32l-96 96a16 16 0 0 1-22.64 0L192 470.62 150.62 512 240 601.38zM448 880h-80v32a16 16 0 0 1-16 16h-16a16 16 0 0 0-16 16v16h128z m48-93.24V640h-144v208h112v-16a48 48 0 0 1 32-45.24zM560 832v16h112V640h-144v146.76A48 48 0 0 1 560 832z m128 96h-16a16 16 0 0 1-16-16v-32h-80v80h128v-16a16 16 0 0 0-16-16z m185.38-416L832 470.62l-36.68 36.7a16 16 0 0 1-22.64 0l-96-96A16 16 0 0 1 672 400v-102.24a112.7 112.7 0 0 1-16 20.68 13.36 13.36 0 0 1 0 1.56v96a16 16 0 0 1-16 16h-64a16 16 0 0 1-16-16h-32v192h144v-80c-0.2-14 17.54-21.38 27.32-11.32L784 601.38zM960 413.26c0.16-25.8-31.86-39.06-50-20.7l-18.74 18.76a16 16 0 0 1-22.64 0l-8-8c-17.38-16.2-41.58 8-25.36 25.36L896 489.38 951.44 434a29.08 29.08 0 0 0 8.56-20.74z" p-id="4499"></path></svg>