<svg t="1660654395883" class="icon" viewBox="0 0 1024 1024" version="1.1" xmlns="http://www.w3.org/2000/svg" p-id="9605" width="300" height="300"><path d="M220.2 891.4V580c0-32.2 26.2-58.4 58.4-58.4h467c32.2 0 58.4 26.2 58.4 58.4v311.4H220.2z" fill="#FFFFFF" p-id="9606"></path><path d="M220.2 755.2h58.4v39h-58.4zM220.2 852.6H804v39H220.2zM745.6 755.2H804v39h-58.4z" fill="#E6E7E8" p-id="9607"></path><path d="M803.8 901.2H220.2c-5.4 0-9.8-4.4-9.8-9.8V580.2c0-37.6 30.6-68.2 68.2-68.2h467c37.6 0 68.2 30.6 68.2 68.2v311.4c-0.2 5.2-4.6 9.6-10 9.6z m-574-19.4H794V580.2c0-26.8-21.8-48.6-48.6-48.6H278.4c-26.8 0-48.6 21.8-48.6 48.6v301.6z" fill="#402943" p-id="9608"></path><path d="M317.4 482.8c-21.4 0-39-17.4-39-39V171.4c0-21.4 17.4-39 39-39h389.2c21.4 0 39 17.4 39 39v272.4c0 21.4-17.4 39-39 39H317.4z" fill="#FFFFFF" p-id="9609"></path><path d="M706.6 132.6h-39c21.4 0 39 17.4 39 39V444c0 21.4-17.4 39-39 39h39c21.4 0 39-17.4 39-39V171.4c0-21.4-17.6-38.8-39-38.8zM317.4 482.8h39c-21.4 0-39-17.4-39-39V171.4c0-21.4 17.4-39 39-39h-39c-21.4 0-39 17.4-39 39v272.4c0 21.6 17.6 39 39 39z" fill="#E6E7E8" p-id="9610"></path><path d="M706.6 492.6H317.4c-26.8 0-48.6-21.8-48.6-48.6V171.4c0-26.8 21.8-48.6 48.6-48.6h389.2c26.8 0 48.6 21.8 48.6 48.6v272.4c0 27-21.8 48.8-48.6 48.8z m0-350.4H317.4c-16 0-29.2 13-29.2 29.2v272.4c0 16 13 29.2 29.2 29.2h389.2c16 0 29.2-13 29.2-29.2V171.4c0-16-13.2-29.2-29.2-29.2z" fill="#402943" p-id="9611"></path><path d="M434.2 482.8h155.6v39h-155.6z" fill="#E6E7E8" p-id="9612"></path><path d="M434.2 482.8h155.6v19.4h-155.6z" fill="#BCBEC0" p-id="9613"></path><path d="M589.8 531.4h-155.6c-5.4 0-9.8-4.4-9.8-9.8v-39c0-5.4 4.4-9.8 9.8-9.8h155.6c5.4 0 9.8 4.4 9.8 9.8v39c0 5.6-4.4 9.8-9.8 9.8z m-146-19.4H580v-19.4h-136.2v19.4z" fill="#402943" p-id="9614"></path><path d="M414.8 288.2m-39 0a39 39 0 1 0 78 0 39 39 0 1 0-78 0Z" fill="#F05458" p-id="9615"></path><path d="M414.8 249.4c-3.4 0-6.6 0.4-9.8 1.2 16.8 4.4 29.2 19.6 29.2 37.6 0 18.2-12.4 33.4-29.2 37.6 3.2 0.8 6.4 1.2 9.8 1.2 21.4 0 39-17.4 39-39s-17.6-38.6-39-38.6z" fill="#D9383C" p-id="9616"></path><path d="M414.8 336.8c-26.8 0-48.6-21.8-48.6-48.6s21.8-48.6 48.6-48.6 48.6 21.8 48.6 48.6-21.8 48.6-48.6 48.6z m0-77.8c-16 0-29.2 13-29.2 29.2s13 29.2 29.2 29.2c16 0 29.2-13 29.2-29.2s-13.2-29.2-29.2-29.2z" fill="#402943" p-id="9617"></path><path d="M609.2 288.2m-39 0a39 39 0 1 0 78 0 39 39 0 1 0-78 0Z" fill="#F05458" p-id="9618"></path><path d="M609.2 249.4c-3.4 0-6.6 0.4-9.8 1.2 16.8 4.4 29.2 19.6 29.2 37.6 0 18.2-12.4 33.4-29.2 37.6 3.2 0.8 6.4 1.2 9.8 1.2 21.4 0 39-17.4 39-39s-17.4-38.6-39-38.6z" fill="#D9383C" p-id="9619"></path><path d="M609.2 336.8c-26.8 0-48.6-21.8-48.6-48.6s21.8-48.6 48.6-48.6 48.6 21.8 48.6 48.6-21.6 48.6-48.6 48.6z m0-77.8c-16 0-29.2 13-29.2 29.2s13 29.2 29.2 29.2c16 0 29.2-13 29.2-29.2s-13-29.2-29.2-29.2z" fill="#402943" p-id="9620"></path><path d="M414.8 385.6h194.4" fill="#F05458" p-id="9621"></path><path d="M609.2 395.2h-194.6c-5.4 0-9.8-4.4-9.8-9.8s4.4-9.8 9.8-9.8h194.6c5.4 0 9.8 4.4 9.8 9.8s-4.4 9.8-9.8 9.8z" fill="#402943" p-id="9622"></path><path d="M317.4 599.6h389.2v233.6H317.4z" fill="#59C3F0" p-id="9623"></path><path d="M317.4 599.6h389.2v39.4H317.4z" fill="#96DCFA" p-id="9624"></path><path d="M317.4 793.8h389.2v39.4H317.4z" fill="#21A0D6" p-id="9625"></path><path d="M706.6 842.8H317.4c-5.4 0-9.8-4.4-9.8-9.8V599.6c0-5.4 4.4-9.8 9.8-9.8h389.2c5.4 0 9.8 4.4 9.8 9.8v233.6c0 5.2-4.4 9.6-9.8 9.6z m-379.4-19.4h369.8v-214H327.2v214z" fill="#402943" p-id="9626"></path><path d="M278.6 366c-32.2 0-58.4-26.2-58.4-58.4s26.2-58.4 58.4-58.4V366z" fill="#4AB5AC" p-id="9627"></path><path d="M278.6 268.8v-19.4c-32.2 0-58.4 26.2-58.4 58.4 0 3.4 0.2 6.6 0.8 9.8 4.6-27.8 28.6-48.8 57.6-48.8z" fill="#5BDED3" p-id="9628"></path><path d="M278.6 346.6v19.4c-32.2 0-58.4-26.2-58.4-58.4 0-3.4 0.2-6.6 0.8-9.8 4.6 27.8 28.6 48.8 57.6 48.8z" fill="#3F9991" p-id="9629"></path><path d="M278.6 375.8c-37.6 0-68.2-30.6-68.2-68.2s30.6-68.2 68.2-68.2c5.4 0 9.8 4.4 9.8 9.8V366c-0.2 5.4-4.6 9.8-9.8 9.8z m-9.8-115.8c-22.2 4.6-39 24.2-39 47.6 0 23.4 16.8 43.2 39 47.6V260z" fill="#402943" p-id="9630"></path><path d="M745.4 249.4c32.2 0 58.4 26.2 58.4 58.4s-26.2 58.4-58.4 58.4v-116.8z" fill="#4AB5AC" p-id="9631"></path><path d="M745.4 268.8v-19.4c32.2 0 58.4 26.2 58.4 58.4 0 3.4-0.2 6.6-0.8 9.8-4.6-27.8-28.6-48.8-57.6-48.8z" fill="#5BDED3" p-id="9632"></path><path d="M745.4 346.6v19.4c32.2 0 58.4-26.2 58.4-58.4 0-3.4-0.2-6.6-0.8-9.8-4.6 27.8-28.6 48.8-57.6 48.8z" fill="#3F9991" p-id="9633"></path><path d="M745.6 375.8c-5.4 0-9.8-4.4-9.8-9.8v-116.8c0-5.4 4.4-9.8 9.8-9.8 37.6 0 68.2 30.6 68.2 68.2-0.2 37.6-30.8 68.2-68.2 68.2z m9.6-115.8v95.4c22.2-4.6 39-24.2 39-47.6 0-23.6-16.8-43.2-39-47.8z" fill="#402943" p-id="9634"></path><path d="M357.2 639h77" fill="#59C3F0" p-id="9635"></path><path d="M434.2 648.8h-77c-5.4 0-9.8-4.4-9.8-9.8s4.4-9.8 9.8-9.8h77c5.4 0 9.8 4.4 9.8 9.8-0.2 5.4-4.4 9.8-9.8 9.8z" fill="#402943" p-id="9636"></path><path d="M277.8 799h-57.6c-2.6 0-4.8-2.2-4.8-4.8 0-2.6 2.2-4.8 4.8-4.8h52.8v-146.2h-52.8c-2.6 0-4.8-2.2-4.8-4.8 0-2.6 2.2-4.8 4.8-4.8h57.6c2.6 0 4.8 2.2 4.8 4.8v156c0 2.4-2.2 4.6-4.8 4.6z" fill="#402943" p-id="9637"></path><path d="M803.2 799h-57.6c-2.6 0-4.8-2.2-4.8-4.8v-156c0-2.6 2.2-4.8 4.8-4.8h57.6c2.6 0 4.8 2.2 4.8 4.8 0 2.6-2.2 4.8-4.8 4.8h-52.8v146.2h52.8c2.6 0 4.8 2.2 4.8 4.8 0 2.8-2.2 5-4.8 5z" fill="#402943" p-id="9638"></path><path d="M628.8 565.6H395.2c-2.6 0-4.8-2.2-4.8-4.8v-39c0-2.6 2.2-4.8 4.8-4.8s4.8 2.2 4.8 4.8v34h223.8v-34c0-2.6 2.2-4.8 4.8-4.8s4.8 2.2 4.8 4.8v39c0.2 2.6-2 4.8-4.6 4.8z" fill="#402943" p-id="9639"></path><path d="M473 152h77.8v19.4h-77.8z" fill="#E6E7E8" p-id="9640"></path><path d="M551 176.4h-77.8c-2.6 0-4.8-2.2-4.8-4.8V132.6c0-2.6 2.2-4.8 4.8-4.8 2.6 0 4.8 2.2 4.8 4.8v34h68v-34c0-2.6 2.2-4.8 4.8-4.8 2.6 0 4.8 2.2 4.8 4.8v39c0.2 2.6-2 4.8-4.6 4.8z" fill="#402943" p-id="9641"></path><path d="M570.4 215.2h-116.8c-1.2 0-2.6-0.6-3.4-1.4l-18-18h-153.6c-2.6 0-4.8-2.2-4.8-4.8 0-2.6 2.2-4.8 4.8-4.8h155.6c1.2 0 2.6 0.6 3.4 1.4l18 18h112.8l18-18c1-1 2.2-1.4 3.4-1.4h155.6c2.6 0 4.8 2.2 4.8 4.8 0 2.6-2.2 4.8-4.8 4.8h-153.6l-18 18c-0.8 1-2.2 1.4-3.4 1.4z" fill="#402943" p-id="9642"></path></svg>