<?xml version="1.0" standalone="no"?><!DOCTYPE svg PUBLIC "-//W3C//DTD SVG 1.1//EN" "http://www.w3.org/Graphics/SVG/1.1/DTD/svg11.dtd"><svg t="1660627919788" class="icon" viewBox="0 0 1024 1024" version="1.1" xmlns="http://www.w3.org/2000/svg" p-id="1065" xmlns:xlink="http://www.w3.org/1999/xlink" width="200" height="200"><defs><style type="text/css">@font-face { font-family: "feedback-iconfont"; src: url("//at.alicdn.com/t/font_1031158_u69w8yhxdu.woff2?t=1630033759944") format("woff2"), url("//at.alicdn.com/t/font_1031158_u69w8yhxdu.woff?t=1630033759944") format("woff"), url("//at.alicdn.com/t/font_1031158_u69w8yhxdu.ttf?t=1630033759944") format("truetype"); }
</style></defs><path d="M127.6 1024c-51.6 0-95.3-39.7-99.4-90.4L0 593.7l0.3-4.2c2.3-28.6 15.4-46 26.1-55.5 17.4-15.6 35.5-18.9 47.6-18.9 16.9 0 30.6 6.1 41.6 11 11.7 5.2 22.8 10.2 41.9 10.7h3.4c13.7 0 19-2.4 30.7-7.6 16.5-7.3 39-17.3 78.5-17.3h1.3c38 0.2 60.6 9.6 77.1 16.4 13.1 5.4 20.3 8.4 37.8 8.4 17.6 0 24.8-3 37.8-8.5 16.6-6.9 39.2-16.4 77.4-16.4 38 0 60.7 9.5 77.2 16.3 12.7 5.3 20.3 8.5 38 8.5 17.4 0 24.6-3 37.8-8.3 16.4-6.7 38.9-15.8 76.5-16.5h4.5c37.9 0 59.7 9.5 75.6 16.4 11.8 5.1 19 8.2 36.7 8.5h1.9c24.1 0 39.3-6.1 54-11.9 12.6-5 27-10.7 43.9-10.7 19 0 36.6 7.2 50.9 20.8 10 9.5 22.5 26.6 25 54l0.4 4.4-28.1 340.2c-4.2 50.7-47.9 90.4-99.5 90.4l-768.7 0.1z" fill="#25467A" p-id="1066"></path><path d="M512 998.1c-137.8 0-265.6-51-359.8-143.6-45.8-45-81.6-97.7-106.5-156.6-25.6-60.5-38.5-125-38.5-191.8 0-77.8 5.5-139.1 17.4-192.9 14.6-66.3 38.9-120.1 74.2-164.4C138 99.6 191.5 62.3 257.9 37.9 327 12.4 410.2 0 512 0s185 12.4 254.1 37.8c66.4 24.5 119.9 61.8 159.1 111 35.3 44.3 59.6 98.1 74.2 164.4 11.9 53.8 17.4 115.1 17.4 192.9 0 66.8-13 131.3-38.5 191.8-24.9 58.9-60.7 111.6-106.5 156.6-94.2 92.6-222 143.6-359.8 143.6z" fill="#25467A" p-id="1067"></path><path d="M512 954.1c-262.7 0-460.8-199.9-460.8-448C51.2 242.4 116.3 44 512 44s460.8 198.4 460.8 462.1c0 248.1-198.1 448-460.8 448z" fill="#FFD191" p-id="1068"></path><path d="M896.6 972.8H127.4c-25.3 0-46.4-18.9-48.5-43.4L51.2 593.6c0.5-7.5 2.3-17.2 9.2-21.5 12.6-7.9 27.5 11.1 56.5 12.8 25.9 1.5 27.6-12.8 56.4-12.8 27.2 0 29.1 12.8 56.4 12.8s29.2-12.8 56.4-12.8c27.3 0 29.2 12.8 56.5 12.8 27.2 0 29.1-12.8 56.5-12.8 27.2 0 29.1 12.8 56.5 12.8 27.3 0 29.2-12.8 56.4-12.8 27.3 0 29.2 12.8 56.5 12.8s29.2-12.8 56.5-12.8 29.2 12.8 56.5 12.8 29.2-12.8 56.5-12.8 29.2 12.8 56.5 12.8 29.2-12.8 56.5-12.8c28.9 0 30.6 14.3 56.5 12.8 28.9-1.7 43.8-20.7 56.5-12.8 6.9 4.3 8.7 13.9 9.2 21.5l-27.8 335.8c-2.4 24.5-23.5 43.4-48.8 43.4z" fill="#AD6418" p-id="1069"></path><path d="M512 460.8c-35.3 0-64-28.7-64-64 0-7.1 5.7-12.8 12.8-12.8s12.8 5.7 12.8 12.8c0 21.2 17.2 38.4 38.4 38.4s38.4-17.2 38.4-38.4c0-7.1 5.7-12.8 12.8-12.8s12.8 5.7 12.8 12.8c0 35.3-28.7 64-64 64z" fill="#25467A" p-id="1070"></path><path d="M384 294.4m-38.4 0a38.4 38.4 0 1 0 76.8 0 38.4 38.4 0 1 0-76.8 0Z" fill="#25467A" p-id="1071"></path><path d="M640 294.4m-38.4 0a38.4 38.4 0 1 0 76.8 0 38.4 38.4 0 1 0-76.8 0Z" fill="#25467A" p-id="1072"></path><path d="M332.8 358.4h-51.2c-14.1 0-25.6 11.5-25.6 25.6s11.5 25.6 25.6 25.6h51.2c14.1 0 25.6-11.5 25.6-25.6s-11.5-25.6-25.6-25.6zM742.4 358.4h-51.2c-14.1 0-25.6 11.5-25.6 25.6s11.5 25.6 25.6 25.6h51.2c14.1 0 25.6-11.5 25.6-25.6s-11.5-25.6-25.6-25.6z" fill="#FFAA9D" p-id="1073"></path><path d="M482.7 579.1v329.7c0 14.1-11.5 25.6-25.6 25.6-14.1 0-25.6-11.5-25.6-25.6V580.3c6.1 2.4 12.9 4.6 24.1 4.6 13 0.1 20-2.9 27.1-5.8zM376.8 905.3c0.3 15.6-11 28.7-25.1 29.1-14 0.4-25.9-12.2-26.1-27.7l-7.3-326.5c6.1 2.6 13.1 4.7 24.3 4.7 12.8 0 20-2.8 26.9-5.9l7.3 326.3zM269.7 904.7c0.6 15.6-10.4 28.9-24.4 29.6s-26.1-11.7-26.6-27.1l-12.4-326.7c6 2.4 12.7 4.5 23.6 4.5 13.3 0 20.5-3.1 27.7-6.1l12.1 325.8zM162.7 904.1c0.8 15.6-10 29.1-24.1 30-14.1 0.9-26.2-11-27-26.6L93.9 579.7c6.5 2.6 14.1 4.7 22.9 5.2 13.7 0.8 20.6-2.8 28.3-6.4l17.6 325.6zM592.5 580.3v328.5c0 14.1-11.5 25.6-25.6 25.6-14.1 0-25.6-11.5-25.6-25.6V579.1c7 2.9 14.1 5.9 27.1 5.9 11.2 0 18-2.2 24.1-4.7zM705.7 580.2l-7.3 326.5c-0.3 15.5-12.2 28-26.1 27.7-14.1-0.4-25.3-13.4-25.1-29.1l7.3-326.3c6.9 3.1 14.1 5.9 26.9 5.9 11.2 0.1 18.1-2.1 24.3-4.7zM817.8 580.5l-12.4 326.7c-0.5 15.5-12.5 27.8-26.6 27.1s-25.1-14-24.5-29.6l12.3-325.9c7.2 3.1 14.3 6.1 27.7 6.1 10.8 0.1 17.5-2 23.5-4.4zM930 579.7l-17.7 327.7c-0.8 15.6-12.9 27.5-27 26.6s-24.8-14.3-24.1-30l17.5-325.5c7.7 3.6 14.6 7.2 28.3 6.4 9-0.4 16.5-2.6 23-5.2z" fill="#814B19" p-id="1074"></path></svg>