<svg t="1660654449762" class="icon" viewBox="0 0 1024 1024" version="1.1" xmlns="http://www.w3.org/2000/svg" p-id="10177" width="300" height="300"><path d="M259 648.2h194.6v233.4h-194.6z" fill="#59C3F0" p-id="10178"></path><path d="M453.59 842.728v39h-194.6v-39z" fill="#21A0D6" p-id="10179"></path><path d="M259 648.2h194.6v39h-194.6z" fill="#96DCFA" p-id="10180"></path><path d="M453.6 891.4h-194.6c-5.4 0-9.8-4.4-9.8-9.8V648.2c0-5.4 4.4-9.8 9.8-9.8h194.6c5.4 0 9.8 4.4 9.8 9.8v233.4c0 5.4-4.4 9.8-9.8 9.8z m-184.8-19.4H444V658h-175.2v214z" fill="#402943" p-id="10181"></path><path d="M453.6 667.6h39v194.6h-39z" fill="#E6E7E8" p-id="10182"></path><path d="M453.6 667.6h39v39h-39z" fill="#FFFFFF" p-id="10183"></path><path d="M453.6 823.4h39v39h-39z" fill="#BCBEC0" p-id="10184"></path><path d="M492.6 872h-39c-5.4 0-9.8-4.4-9.8-9.8v-194.6c0-5.4 4.4-9.8 9.8-9.8h39c5.4 0 9.8 4.4 9.8 9.8v194.6c-0.2 5.4-4.4 9.8-9.8 9.8z m-29.2-19.4h19.4v-175.2h-19.4v175.2z" fill="#402943" p-id="10185"></path><path d="M492.6 842.8h39c0 21.4 17.4 39 39 39h204.4c16.2 0 29.2-13 29.2-29.2s-13-29.2-29.2-29.2c16.2 0 29.2-13 29.2-29.2s-13-29.2-29.2-29.2c16.2 0 29.2-13 29.2-29.2s-13-29.2-29.2-29.2c16.2 0 29.2-13 29.2-29.2s-13-29.2-29.2-29.2h-29.2c0-21.4-17.4-39-39-39h-97.2c-43 0-77.8 34.8-77.8 77.8h-39v155.8z" fill="#FFFFFF" p-id="10186"></path><path d="M609.2 881.8c-21.4 0-39-17.4-39-39h-39v-155.6h39c0-43 34.8-77.8 77.8-77.8h58.4-97.2c-43 0-77.8 34.8-77.8 77.8h-39v155.6h39c0 21.4 17.4 39 39 39h204.4-165.6z" fill="#E6E7E8" p-id="10187"></path><path d="M774.6 891.4H570.2c-23.4 0-43.2-16.8-47.6-39h-30.2c-5.4 0-9.8-4.4-9.8-9.8v-155.6c0-5.4 4.4-9.8 9.8-9.8h29.8c4.8-43.8 42-77.8 87-77.8h97.2c23.4 0 43.2 16.8 47.6 39h20.4c21.4 0 39 17.4 39 39 0 11.6-5.2 22-13.2 29.2 0.6 0.6 1.2 1 1.8 1.6 7.4 7.4 11.4 17.2 11.4 27.6 0 11.6-5.2 22-13.2 29.2 0.6 0.6 1.2 1.2 1.8 1.6 7.4 7.4 11.4 17.2 11.4 27.6 0 11.6-5.2 22-13.2 29.2 8 7.2 13.2 17.6 13.2 29.2 0.2 21.4-17.2 38.8-38.8 38.8z m-272.4-58.4h29.2c5.4 0 9.8 4.4 9.8 9.8 0 16 13 29.2 29.2 29.2h204.4c10.8 0 19.4-8.8 19.4-19.4 0-10.8-8.8-19.4-19.4-19.4-5.4 0-9.8-4.4-9.8-9.8s4.4-9.8 9.8-9.8c10.8 0 19.4-8.8 19.4-19.4 0-5.2-2-10-5.8-13.8-3.6-3.6-8.6-5.6-13.8-5.6-5.4 0-9.8-4.4-9.8-9.8s4.4-9.8 9.8-9.8c10.8 0 19.4-8.8 19.4-19.4 0-5.2-2-10-5.8-13.8-3.6-3.6-8.6-5.6-13.8-5.6-5.4 0-9.8-4.4-9.8-9.8s4.4-9.8 9.8-9.8c10.8 0 19.4-8.8 19.4-19.4 0-10.8-8.8-19.4-19.4-19.4h-29.2c-5.4 0-9.8-4.4-9.8-9.8 0-16-13-29.2-29.2-29.2h-97.2c-37.6 0-68.2 30.6-68.2 68.2 0 5.4-4.4 9.8-9.8 9.8h-29.2v136z" fill="#402943" p-id="10188"></path><path d="M512 181.2H220.2l77.8 155.6-77.8 155.8H512z" fill="#E6E7E8" p-id="10189"></path><path d="M395.2 181.2h77.8v311.4h-77.8z" fill="#BCBEC0" p-id="10190"></path><path d="M259 181.2h-38.8l77.8 155.6-77.8 155.8h38.8l77.8-155.8z" fill="#FFFFFF" p-id="10191"></path><path d="M512 502.2H220.2c-3.4 0-6.6-1.8-8.2-4.6-1.8-2.8-2-6.4-0.4-9.4l75.6-151.4-75.6-151.4c-1.6-3-1.4-6.6 0.4-9.4 1.8-2.8 5-4.6 8.2-4.6H512c2.6 0 5 1 6.8 2.8 1.8 1.8 2.8 4.2 2.8 6.8v311.4c0.2 5.6-4.2 9.8-9.6 9.8z m-276.2-19.4h266.4V191H235.8l70.8 141.6c1.4 2.8 1.4 6 0 8.8l-70.8 141.4z" fill="#402943" p-id="10192"></path><path d="M667.6 142.2h39v506h-39z" fill="#FFFFFF" p-id="10193"></path><path d="M687.2 142.2h19.4v506h-19.4z" fill="#E6E7E8" p-id="10194"></path><path d="M706.6 658h-39c-5.4 0-9.8-4.4-9.8-9.8v-506c0-5.4 4.4-9.8 9.8-9.8h39c5.4 0 9.8 4.4 9.8 9.8v506c0 5.4-4.4 9.8-9.8 9.8z m-29.2-19.6h19.4V152h-19.4v486.4z" fill="#402943" p-id="10195"></path><path d="M434.2 142.2h233.6v311.4H434.2z" fill="#E6E7E8" p-id="10196"></path><path d="M628.8 142.2h39v311.4h-39z" fill="#BCBEC0" p-id="10197"></path><path d="M434.2 142.2h39v311.4h-39z" fill="#FFFFFF" p-id="10198"></path><path d="M667.6 463.4H434.2c-5.4 0-9.8-4.4-9.8-9.8V142.2c0-5.4 4.4-9.8 9.8-9.8h233.6c5.4 0 9.8 4.4 9.8 9.8v311.4c-0.2 5.4-4.6 9.8-10 9.8z m-223.8-19.6h214V152h-214v291.8z" fill="#402943" p-id="10199"></path><path d="M512 492.6l-77.8-39H512z" fill="#BCBEC0" p-id="10200"></path><path d="M512 502.2c-1.4 0-3-0.4-4.4-1l-77.8-39c-4-2-6.2-6.6-5.2-11s5-7.4 9.4-7.4h78c5.4 0 9.8 4.4 9.8 9.8v39c0 3.4-1.8 6.6-4.6 8.2-1.6 1-3.4 1.4-5.2 1.4z m-36.6-38.8l26.8 13.4v-13.4h-26.8z" fill="#402943" p-id="10201"></path><path d="M705 186h-37.4c-2.6 0-4.8-2.2-4.8-4.8 0-2.6 2.2-4.8 4.8-4.8h37.4c2.6 0 4.8 2.2 4.8 4.8 0 2.6-2 4.8-4.8 4.8z" fill="#402943" p-id="10202"></path><path d="M705 419.6h-37.4c-2.6 0-4.8-2.2-4.8-4.8 0-2.6 2.2-4.8 4.8-4.8h37.4c2.6 0 4.8 2.2 4.8 4.8 0 2.6-2 4.8-4.8 4.8z" fill="#402943" p-id="10203"></path><path d="M745.6 658h-116.8c-5.4 0-9.8-4.4-9.8-9.8s4.4-9.8 9.8-9.8h116.8c5.4 0 9.8 4.4 9.8 9.8-0.2 5.4-4.6 9.8-9.8 9.8z" fill="#402943" p-id="10204"></path><path d="M774.6 716.4h-29.2c-5.4 0-9.8-4.4-9.8-9.8s4.4-9.8 9.8-9.8h29.2c5.4 0 9.8 4.4 9.8 9.8s-4.4 9.8-9.8 9.8z" fill="#402943" p-id="10205"></path><path d="M774.6 774.6h-29.2c-5.4 0-9.8-4.4-9.8-9.8s4.4-9.8 9.8-9.8h29.2c5.4 0 9.8 4.4 9.8 9.8 0 5.6-4.4 9.8-9.8 9.8z" fill="#402943" p-id="10206"></path><path d="M774.6 833h-29.2c-5.4 0-9.8-4.4-9.8-9.8s4.4-9.8 9.8-9.8h29.2c5.4 0 9.8 4.4 9.8 9.8s-4.4 9.8-9.8 9.8z" fill="#402943" p-id="10207"></path><path d="M336.8 346.6H298c-5.4 0-9.8-4.4-9.8-9.8s4.4-9.8 9.8-9.8h39c5.4 0 9.8 4.4 9.8 9.8-0.2 5.4-4.6 9.8-10 9.8z" fill="#402943" p-id="10208"></path></svg>