<svg t="1660654165168" class="icon" viewBox="0 0 1024 1024" version="1.1" xmlns="http://www.w3.org/2000/svg" p-id="5385" width="300" height="300"><path d="M512 192m-144 0a144 144 0 1 0 288 0 144 144 0 1 0-288 0Z" fill="#FCC200" p-id="5386"></path><path d="M944 504.46V384a64 64 0 0 0-64-64 64 64 0 0 0-64 64v120.46a96 96 0 1 0 128 0zM112 672V448l-32-32 32-80h32v-16h112v128H192v224z" fill="#C0DCE2" p-id="5387"></path><path d="M576 688l182.78 26.12A48 48 0 0 1 800 761.64V976H224V761.64a48 48 0 0 1 41.22-47.52L448 688z" fill="#2C3F51" p-id="5388"></path><path d="M512 592h-64v96l64 64 64-64v-96z" fill="#FAC8B2" p-id="5389"></path><path d="M512 976a16 16 0 0 1-16-16v-144a16 16 0 0 1 32 0v144a16 16 0 0 1-16 16z" fill="#1B2C3A" p-id="5390"></path><path d="M576 640l96 96h-64l-96 96v-80l64-64z" fill="#C0DCE2" p-id="5391"></path><path d="M448 640l-96 96h64l96 96v-80l-64-64z" fill="#D1E1E5" p-id="5392"></path><path d="M336 976h-32v-128a16 16 0 0 1 16-16 16 16 0 0 1 16 16zM720 976h-32v-128a16 16 0 0 1 16-16 16 16 0 0 1 16 16z" fill="#1B2C3A" p-id="5393"></path><path d="M512 512m-160 0a160 160 0 1 0 320 0 160 160 0 1 0-320 0Z" fill="#FAC8B2" p-id="5394"></path><path d="M400 624v-112h80c96 0 96-80 96-80l48 80v112a48 48 0 0 0 48-48v-64a48 48 0 0 0 48-48v-16h-32a144 144 0 0 0-144-144h-64a144 144 0 0 0-144 144h-32v16a48 48 0 0 0 48 48v64a48 48 0 0 0 48 48z" fill="#2C3F51" p-id="5395"></path><path d="M48 608h160v-112H112v-32H80l-32 32z" fill="#FAC8B2" p-id="5396"></path><path d="M880 560a16 16 0 0 1-16-16v-160a16 16 0 0 1 32 0v160a16 16 0 0 1-16 16z" fill="#E22526" p-id="5397"></path><path d="M880 576m-32 0a32 32 0 1 0 64 0 32 32 0 1 0-64 0Z" fill="#E22526" p-id="5398"></path><path d="M534.62 192l20.7-20.68a16 16 0 1 0-22.64-22.64L512 169.38l-20.68-20.7a16 16 0 0 0-22.64 22.64L489.38 192l-20.7 20.68a16 16 0 0 0 22.64 22.64L512 214.62l20.68 20.7a16 16 0 1 0 22.64-22.64z" fill="#F98800" p-id="5399"></path><path d="M464 544m-16 0a16 16 0 1 0 32 0 16 16 0 1 0-32 0Z" fill="#2C3F51" p-id="5400"></path><path d="M560 544m-16 0a16 16 0 1 0 32 0 16 16 0 1 0-32 0Z" fill="#2C3F51" p-id="5401"></path><path d="M256 384l242.38-60.6A62.46 62.46 0 0 1 576 384a62.46 62.46 0 0 1-77.62 60.6z" fill="#E92949" p-id="5402"></path><path d="M400 592s64-16 112-16 112 16 112 16v32s-32 48-112 48-112-48-112-48z" fill="#ECEFF0" p-id="5403"></path><path d="M960 497.64V384a80 80 0 0 0-160 0v113.64c-68.92 70.76-19.14 189.36 79.48 190.36 99.22 0.3 149.7-119.4 80.52-190.36z m-23.56 135.06c-48.64 49.1-133.6 15.12-136.38-53.52a80 80 0 0 1 26.62-62.8 16 16 0 0 0 5.32-12V384c2.6-63.6 93.34-63.72 96 0v120.46a16 16 0 0 0 5.32 12c33.96 29.3 35.6 85.16 3.12 116.24z m-175.4 65.58l-121.5-17.36-25.06-25.06a127.08 127.08 0 0 0 9.84-8.36l0.26-0.22c3.04-2.54 6-5.22 8.96-8C664 635.22 688.6 606.86 688 576v-50c27.52-6.68 48.5-33.52 48-62v-16a16 16 0 0 0-16-16h-16.78c-4.66-51.18-36-98.78-81.32-123.74C726.44 210.14 656 31.8 512 32c-143.88-0.2-214.44 178.14-110 276.24a160.72 160.72 0 0 0-41.3 33.08L272 363.5V320a16 16 0 0 0-16-16H144a16 16 0 0 0-16 16h-16a16 16 0 0 0-14.86 10l-32 80a16 16 0 0 0 3.54 17.26L89.38 448H80a16 16 0 0 0-11.32 4.68l-32 32A16 16 0 0 0 32 496v112a16 16 0 0 0 16 16h48v48a16 16 0 0 0 16 16h80a16 16 0 0 0 16-16v-48a16 16 0 0 0 16-16v-112a16 16 0 0 0-16-16v-16h48a16 16 0 0 0 16-16v-43.5l50.98 12.74c-0.94 4.88-1.7 9.8-2.18 14.76H304a16 16 0 0 0-16 16v16a64.12 64.12 0 0 0 48 62v50a64 64 0 0 0 54.48 63.3c2.92 2.78 6 5.46 8.94 8l0.28 0.24c2.8 2.62 6 5.44 9.82 8.34l-25.06 25.06-121.5 17.36A64.32 64.32 0 0 0 208 761.64V976a16 16 0 0 0 16 16h576a16 16 0 0 0 16-16V761.64a64.32 64.32 0 0 0-54.96-63.36zM64 502.62L86.62 480H96v16a16 16 0 0 0 16 16h80v80H64zM176 656H128v-32h48z m64-224H192a16 16 0 0 0-16 16v32H128v-32a16 16 0 0 0-4.68-11.32l-24.54-24.54 24-60.14H144a16 16 0 0 0 16-16h80z m192 246.62V688a16 16 0 0 0 4.68 11.32L496 758.62v34.76l-68.68-68.7A16 16 0 0 0 416 720h-25.38z m149.68-206L608 516.44V572c-69.38-15.44-122.72-15.42-192 0v-44h48c65.78 3.12 100.76-20 117.68-55.44z m-165.68 146v-13.76c71.5-16.42 120.62-16.38 192 0v13.76c-1.02 1.18-2.36 2.64-4 4.26l-0.66 0.56a144 144 0 0 1-182.68 0l-0.76-0.66c-1.6-1.7-2.9-3.1-3.9-4.28zM506.8 688a194.18 194.18 0 0 0 52.26-5.58L512 729.38l-47.06-47.06A187.52 187.52 0 0 0 506.8 688z m21.2 70.62l59.32-59.3A16 16 0 0 0 592 688v-9.38L633.38 720H608a16 16 0 0 0-11.32 4.68L528 793.38zM672 448a16 16 0 0 0 16 16h16a32 32 0 0 1-32 32 16 16 0 0 0-16 16v64a32 32 0 0 1-16 27.7V512a16 16 0 0 0-2.28-8.24l-48-80a16 16 0 0 0-5.54-5.5c16.42-32.74 6.18-75.86-23.88-97.22C622.6 328 673.18 385.22 672 448zM384 192a128.14 128.14 0 0 1 128-128c122.34 0.2 174.46 157.16 76.8 230.4A159.5 159.5 0 0 0 544 288h-64a159.5 159.5 0 0 0-44.8 6.4A127.76 127.76 0 0 1 384 192z m-10.16 179.04h0.18l128.24-32a46.28 46.28 0 0 1 39.88 8.46c23.66 17.78 23.66 55.46 0 73.24a46.28 46.28 0 0 1-39.88 8.46L322 384zM368 576v-64a16 16 0 0 0-16-16 32 32 0 0 1-32-32h16a16 16 0 0 0 16-16 127.54 127.54 0 0 1 2-22.98c11.88 2 151.62 40.24 159.64 37.48a77.78 77.78 0 0 0 43.24-13.16c-6 18.98-23.84 46.66-76.96 46.66H400a16 16 0 0 0-16 16v91.74a32 32 0 0 1-16-27.74z m-128 185.64A32.16 32.16 0 0 1 267.48 730l79.26-11.32-6 6c-10 9.78-2.7 27.52 11.32 27.32h57.38L496 838.62V960h-160v-96a16 16 0 0 0-32 0v96h-64zM784 960h-64v-96a16 16 0 0 0-32 0v96h-160v-121.38L614.62 752H672a16 16 0 0 0 11.32-27.32l-6-6 79.2 11.32A32.16 32.16 0 0 1 784 761.64z m96-352c-33.18-0.36-44-44-15.48-60a16.48 16.48 0 0 1-0.52-4v-160a16 16 0 0 1 32 0v160a16.48 16.48 0 0 1-0.52 4c28.52 16 17.7 59.64-15.48 60zM468.68 212.68L489.38 192l-20.7-20.68a16 16 0 0 1 22.64-22.64L512 169.38l20.68-20.7a16 16 0 1 1 22.64 22.64L534.62 192l20.7 20.68a16 16 0 1 1-22.64 22.64L512 214.62l-20.68 20.7a16 16 0 0 1-22.64-22.64zM464 528c21.2 0.78 21.2 31.22 0 32a16 16 0 0 1 0-32z m80 16c0.78-21.2 31.22-21.2 32 0a16 16 0 0 1-32 0z" p-id="5404"></path></svg>